<?xml version="1.0" standalone="no"?>
<!DOCTYPE svg PUBLIC "-//W3C//DTD SVG 20010904//EN"
 "http://www.w3.org/TR/2001/REC-SVG-20010904/DTD/svg10.dtd">
<svg version="1.0" xmlns="http://www.w3.org/2000/svg"
 width="512.000000pt" height="512.000000pt" viewBox="0 0 512.000000 512.000000"
 preserveAspectRatio="xMidYMid meet">
<metadata>
Created by potrace 1.14, written by Peter Selinger 2001-2017
</metadata>
<g transform="translate(0.000000,512.000000) scale(0.100000,-0.100000)"
fill="#000000" stroke="none">
<path d="M618 5110 c-277 -47 -502 -250 -590 -530 l-23 -75 0 -1945 0 -1945
23 -75 c81 -256 256 -432 512 -512 l75 -23 1945 0 1945 0 75 23 c256 81 432
256 512 512 l23 75 0 1945 0 1945 -23 75 c-80 254 -250 425 -507 512 l-70 23
-1925 1 c-1059 1 -1946 -2 -1972 -6z m2357 -985 c86 -18 212 -78 281 -133 262
-208 325 -650 133 -929 -19 -27 -28 -48 -22 -50 7 -3 43 -26 81 -53 190 -133
342 -351 404 -580 19 -72 23 -108 22 -240 -1 -139 -3 -165 -28 -245 -34 -115
-81 -213 -147 -312 -134 -198 -372 -370 -594 -428 -32 -8 -62 -19 -69 -24 -6
-5 -58 -37 -116 -71 l-105 -62 95 99 c147 152 209 258 256 439 31 120 43 328
25 444 -49 314 -224 541 -503 654 -108 43 -144 53 -493 141 -159 40 -328 87
-374 105 -109 43 -217 116 -316 215 -136 136 -204 268 -240 471 -19 106 -31
356 -20 440 l7 59 24 -94 c86 -339 346 -582 779 -725 111 -37 496 -136 525
-136 35 1 -75 46 -312 126 -473 159 -708 300 -845 508 l-33 49 0 167 c0 92 3
170 7 173 3 4 344 7 757 7 625 0 763 -3 821 -15z m-1392 -1213 c158 -125 244
-169 510 -261 357 -124 473 -181 591 -291 102 -95 194 -258 237 -420 32 -119
32 -363 0 -494 -25 -103 -66 -206 -112 -277 l-32 -50 -386 3 c-431 5 -441 6
-586 78 -184 90 -325 263 -386 472 -20 70 -21 100 -26 659 -3 323 -2 625 2
673 l7 87 59 -65 c33 -36 88 -87 122 -114z"/>
</g>
</svg>
